# xmcd
#
# Track frame offsets:
#	150
#	16033
#	28172
#	44738
#	58113
#	77122
#	97687
#	118784
#	134494
#	151194
#	169330
#	185441
#	202787
#	230363
#	242558
#	257814
#	273632
#
# Disc length: 4128 seconds
#
# Revision: 2
# Processed by: cddbd v1.5.2PL0 Copyright (c) Steve Scherf et al.
# Submitted via: audiograbber 1.83.01
#
DISCID=e3101e11
DTITLE=Lucy Malheur - Therapy
DYEAR=2012
DGENRE=Pop
TTITLE0=Lucy Malheur
TTITLE1=Summer Leaves
TTITLE2=Short, Fat And Ugly
TTITLE3=Your Blues Got Nothin' But The Ain't
TTITLE4=I Got The Blues
TTITLE5=Half A Bottle, Half A Life, Half A Song
TTITLE6=Mysterious Night
TTITLE7=I Am
TTITLE8=Believe In Tomorrow
TTITLE9=The Price You Pay
TTITLE10=Okay
TTITLE11=Micky's Marker
TTITLE12=Count My Blessings (Unplugged)
TTITLE13=Braggartsville
TTITLE14=I Can Wait
TTITLE15=I Am A Stranger
TTITLE16=Only A Child
EXTD=corrected release date is 2012, category should be Pop (which is not avail
EXTD=able).
EXTT0=
EXTT1=
EXTT2=
EXTT3=
EXTT4=
EXTT5=
EXTT6=
EXTT7=
EXTT8=
EXTT9=
EXTT10=
EXTT11=
EXTT12=
EXTT13=
EXTT14=
EXTT15=
EXTT16=
PLAYORDER=
